# xmcd
#
# Track frame offsets: 
#        150
#        14666
#        29385
#        44168
#        58019
#        74573
#        87787
#        102398
#        125001
#        151216
#
# Disc length: 2221 seconds
#
# Revision: 7
# Processed by: cddbd v1.5.2PL0 Copyright (c) Steve Scherf et al.
# Submitted via: ExactAudioCopy v0.90b4
#
DISCID=8e08ab0a
DTITLE=Phoenix - It's Never Been Like That
DYEAR=2006
DGENRE=Rock
TTITLE0=Napoleon Says
TTITLE1=Consolation Prizes
TTITLE2=Rally
TTITLE3=Long Distance Call
TTITLE4=One Time Too Many
TTITLE5=Lost And Found
TTITLE6=Courtesy Laughs
TTITLE7=North
TTITLE8=Sometimes In The Fall
TTITLE9=Second To None
EXTD=
EXTT0=
EXTT1=
EXTT2=
EXTT3=
EXTT4=
EXTT5=
EXTT6=
EXTT7=
EXTT8=
EXTT9=
PLAYORDER=
